<mxfile host="app.diagrams.net" modified="2023-03-14T13:00:16.784Z" agent="5.0 (Windows NT 10.0; Win64; x64) AppleWebKit/537.36 (KHTML, like Gecko) Chrome/111.0.0.0 Safari/537.36" etag="OjvNEY34R7iJB7gjhqyd" version="21.0.6" type="github">
  <diagram id="C5RBs43oDa-KdzZeNtuy" name="Page-1">
    <mxGraphModel dx="880" dy="444" grid="1" gridSize="10" guides="1" tooltips="1" connect="1" arrows="1" fold="1" page="1" pageScale="1" pageWidth="827" pageHeight="1169" math="0" shadow="0">
      <root>
        <mxCell id="WIyWlLk6GJQsqaUBKTNV-0" />
        <mxCell id="WIyWlLk6GJQsqaUBKTNV-1" parent="WIyWlLk6GJQsqaUBKTNV-0" />
        <mxCell id="Nojwn3M6Bny_OTiUFF3D-4" style="edgeStyle=orthogonalEdgeStyle;rounded=0;orthogonalLoop=1;jettySize=auto;html=1;entryX=0.5;entryY=0;entryDx=0;entryDy=0;" edge="1" parent="WIyWlLk6GJQsqaUBKTNV-1" source="Nojwn3M6Bny_OTiUFF3D-0" target="Nojwn3M6Bny_OTiUFF3D-2">
          <mxGeometry relative="1" as="geometry" />
        </mxCell>
        <mxCell id="Nojwn3M6Bny_OTiUFF3D-0" value="mulai" style="ellipse;whiteSpace=wrap;html=1;" vertex="1" parent="WIyWlLk6GJQsqaUBKTNV-1">
          <mxGeometry x="85" y="70" width="110" height="50" as="geometry" />
        </mxCell>
        <mxCell id="Nojwn3M6Bny_OTiUFF3D-5" style="edgeStyle=orthogonalEdgeStyle;rounded=0;orthogonalLoop=1;jettySize=auto;html=1;exitX=0.5;exitY=1;exitDx=0;exitDy=0;entryX=0.5;entryY=0;entryDx=0;entryDy=0;" edge="1" parent="WIyWlLk6GJQsqaUBKTNV-1" source="Nojwn3M6Bny_OTiUFF3D-2" target="Nojwn3M6Bny_OTiUFF3D-3">
          <mxGeometry relative="1" as="geometry" />
        </mxCell>
        <mxCell id="Nojwn3M6Bny_OTiUFF3D-2" value="mengupload produk dan jasa di facebook" style="rounded=1;whiteSpace=wrap;html=1;absoluteArcSize=1;arcSize=14;strokeWidth=2;" vertex="1" parent="WIyWlLk6GJQsqaUBKTNV-1">
          <mxGeometry x="90" y="180" width="100" height="100" as="geometry" />
        </mxCell>
        <mxCell id="Nojwn3M6Bny_OTiUFF3D-3" value="selesai" style="ellipse;whiteSpace=wrap;html=1;" vertex="1" parent="WIyWlLk6GJQsqaUBKTNV-1">
          <mxGeometry x="85" y="330" width="110" height="50" as="geometry" />
        </mxCell>
        <mxCell id="Nojwn3M6Bny_OTiUFF3D-6" style="edgeStyle=orthogonalEdgeStyle;rounded=0;orthogonalLoop=1;jettySize=auto;html=1;entryX=0.5;entryY=0;entryDx=0;entryDy=0;" edge="1" parent="WIyWlLk6GJQsqaUBKTNV-1" source="Nojwn3M6Bny_OTiUFF3D-7" target="Nojwn3M6Bny_OTiUFF3D-9">
          <mxGeometry relative="1" as="geometry" />
        </mxCell>
        <mxCell id="Nojwn3M6Bny_OTiUFF3D-7" value="mulai" style="ellipse;whiteSpace=wrap;html=1;" vertex="1" parent="WIyWlLk6GJQsqaUBKTNV-1">
          <mxGeometry x="620" y="70" width="110" height="50" as="geometry" />
        </mxCell>
        <mxCell id="Nojwn3M6Bny_OTiUFF3D-12" style="edgeStyle=orthogonalEdgeStyle;rounded=0;orthogonalLoop=1;jettySize=auto;html=1;exitX=0.5;exitY=1;exitDx=0;exitDy=0;entryX=0.5;entryY=0;entryDx=0;entryDy=0;" edge="1" parent="WIyWlLk6GJQsqaUBKTNV-1" source="Nojwn3M6Bny_OTiUFF3D-9" target="Nojwn3M6Bny_OTiUFF3D-11">
          <mxGeometry relative="1" as="geometry" />
        </mxCell>
        <mxCell id="Nojwn3M6Bny_OTiUFF3D-9" value="menghapus upload produk dan jasa di facebook" style="rounded=1;whiteSpace=wrap;html=1;absoluteArcSize=1;arcSize=14;strokeWidth=2;" vertex="1" parent="WIyWlLk6GJQsqaUBKTNV-1">
          <mxGeometry x="625" y="180" width="100" height="100" as="geometry" />
        </mxCell>
        <mxCell id="Nojwn3M6Bny_OTiUFF3D-10" value="selesai" style="ellipse;whiteSpace=wrap;html=1;" vertex="1" parent="WIyWlLk6GJQsqaUBKTNV-1">
          <mxGeometry x="620" y="470" width="110" height="50" as="geometry" />
        </mxCell>
        <mxCell id="Nojwn3M6Bny_OTiUFF3D-13" style="edgeStyle=orthogonalEdgeStyle;rounded=0;orthogonalLoop=1;jettySize=auto;html=1;exitX=0.5;exitY=1;exitDx=0;exitDy=0;entryX=0.5;entryY=0;entryDx=0;entryDy=0;" edge="1" parent="WIyWlLk6GJQsqaUBKTNV-1" source="Nojwn3M6Bny_OTiUFF3D-11" target="Nojwn3M6Bny_OTiUFF3D-10">
          <mxGeometry relative="1" as="geometry" />
        </mxCell>
        <mxCell id="Nojwn3M6Bny_OTiUFF3D-11" value="mengupload ulang upload produk dan jasa yang sudah diperbarui di facebook" style="rounded=1;whiteSpace=wrap;html=1;absoluteArcSize=1;arcSize=14;strokeWidth=2;" vertex="1" parent="WIyWlLk6GJQsqaUBKTNV-1">
          <mxGeometry x="625" y="330" width="100" height="100" as="geometry" />
        </mxCell>
        <mxCell id="Nojwn3M6Bny_OTiUFF3D-14" value="flowchart upload produk jsasa" style="text;html=1;strokeColor=none;fillColor=none;align=center;verticalAlign=middle;whiteSpace=wrap;rounded=0;" vertex="1" parent="WIyWlLk6GJQsqaUBKTNV-1">
          <mxGeometry x="90" y="30" width="100" height="20" as="geometry" />
        </mxCell>
        <mxCell id="Nojwn3M6Bny_OTiUFF3D-15" value="flowchart update produk jsasa" style="text;html=1;strokeColor=none;fillColor=none;align=center;verticalAlign=middle;whiteSpace=wrap;rounded=0;" vertex="1" parent="WIyWlLk6GJQsqaUBKTNV-1">
          <mxGeometry x="630" y="30" width="100" height="20" as="geometry" />
        </mxCell>
      </root>
    </mxGraphModel>
  </diagram>
</mxfile>
